<?xml version="1.0" standalone="no"?>
<!DOCTYPE svg PUBLIC "-//W3C//DTD SVG 20010904//EN"
 "http://www.w3.org/TR/2001/REC-SVG-20010904/DTD/svg10.dtd">
<svg version="1.0" xmlns="http://www.w3.org/2000/svg"
 width="1537.000000pt" height="1147.000000pt" viewBox="0 0 1537.000000 1147.000000"
 preserveAspectRatio="xMidYMid meet">

<g transform="translate(0.000000,1147.000000) scale(0.100000,-0.100000)"
fill="#000000" stroke="none">
<path d="M5730 8285 c0 -1075 2 -1955 5 -1955 3 0 173 210 378 468 205 257
686 859 1068 1337 382 479 910 1140 1173 1470 264 330 486 608 494 618 14 16
-60 17 -1551 17 l-1567 0 0 -1955z m1025 1521 c4 -94 10 -200 14 -235 l6 -65
80 253 c44 138 81 248 82 244 2 -5 -19 -119 -46 -253 -27 -135 -48 -246 -46
-248 2 -2 63 93 135 210 73 117 137 218 142 223 12 13 -31 -83 -83 -187 -23
-46 -63 -129 -90 -186 l-49 -104 98 91 c53 50 144 135 202 189 l104 97 -61
-75 c-34 -41 -111 -133 -172 -205 -60 -71 -108 -132 -105 -134 2 -2 104 53
228 123 124 69 228 126 232 126 4 0 -85 -65 -197 -146 -112 -80 -210 -151
-218 -159 -15 -14 -1 -11 359 85 79 22 146 38 147 36 2 -1 -99 -42 -224 -90
-126 -48 -241 -93 -258 -101 -26 -12 8 -13 250 -8 154 3 278 3 275 0 -3 -3
-50 -10 -105 -17 -199 -22 -430 -51 -432 -54 -2 -1 114 -31 257 -66 142 -35
258 -66 256 -67 -2 -2 -120 12 -262 31 -142 20 -259 34 -261 32 -2 -2 99 -58
224 -126 126 -67 232 -126 237 -130 5 -5 -85 30 -200 76 -115 47 -231 94 -259
104 l-50 19 40 -36 c207 -190 365 -337 365 -341 0 -2 -6 0 -12 5 -22 17 -361
267 -397 293 -19 13 -31 17 -26 9 5 -7 66 -102 135 -209 150 -233 142 -220
136 -220 -3 0 -71 82 -153 182 -81 101 -156 192 -165 203 -10 12 18 -87 67
-234 47 -140 83 -256 82 -258 -2 -1 -52 103 -112 233 -60 130 -111 231 -113
224 -3 -7 3 -120 13 -252 9 -131 15 -241 13 -243 -2 -3 -24 105 -47 238 -24
133 -47 248 -50 254 -4 7 -26 -96 -50 -230 -40 -227 -68 -351 -56 -252 9 74
36 497 33 501 -2 2 -53 -104 -113 -236 -61 -131 -111 -237 -113 -235 -2 2 33
112 78 245 44 134 79 244 77 246 -2 3 -77 -86 -166 -196 -90 -110 -165 -200
-167 -200 -6 0 -9 -4 111 180 156 238 177 272 163 264 -7 -5 -62 -45 -123 -89
-60 -45 -154 -114 -207 -153 -54 -40 -98 -70 -98 -68 0 2 88 85 195 185 107
99 191 181 187 181 -5 0 -114 -43 -242 -95 -128 -52 -235 -94 -237 -92 -2 2
100 59 227 127 127 68 229 125 227 126 -2 2 -119 -12 -261 -32 -142 -19 -260
-33 -262 -31 -2 2 112 32 254 67 297 74 301 65 -43 105 -126 15 -232 29 -235
32 -3 3 119 3 270 -1 159 -3 270 -2 265 3 -6 5 -119 50 -253 101 -133 52 -241
95 -239 96 1 2 68 -14 147 -36 333 -89 370 -98 365 -90 -3 4 -98 74 -212 155
-224 159 -253 182 -183 142 197 -112 440 -245 440 -241 0 2 -71 88 -157 190
-236 278 -236 278 75 -20 68 -65 126 -116 128 -113 2 2 -47 112 -111 243 -63
131 -108 230 -100 219 9 -11 75 -115 148 -232 72 -116 133 -211 134 -210 0 1
-23 121 -52 267 -29 146 -52 267 -50 268 2 2 10 -18 18 -45 49 -165 141 -449
147 -456 6 -6 28 335 31 473 2 98 17 -21 24 -194z"/>
<path d="M5413 9556 c-153 -160 -233 -364 -233 -593 0 -61 4 -114 9 -117 5 -3
14 8 21 25 21 49 83 140 127 185 l40 41 6 124 c6 129 32 243 77 342 12 27 20
50 18 53 -2 2 -32 -25 -65 -60z"/>
<path d="M9890 9596 c5 -14 16 -39 25 -55 31 -60 65 -221 70 -333 l5 -110 53
-57 c29 -32 71 -93 94 -136 l40 -78 8 77 c15 167 -31 357 -124 511 -32 53
-112 149 -150 181 l-31 26 10 -26z"/>
<path d="M5096 9223 c-14 -45 -96 -473 -96 -500 0 -17 10 -45 23 -64 12 -19
40 -63 62 -99 l39 -65 13 93 c7 51 17 109 23 130 7 26 7 62 -1 122 -11 81 -8
268 5 300 3 9 -8 33 -28 58 -28 35 -35 40 -40 25z"/>
<path d="M10229 9199 c-21 -30 -22 -43 -25 -223 -1 -105 -3 -200 -4 -211 -1
-11 5 -60 15 -110 9 -49 18 -105 21 -124 l5 -34 36 59 c19 32 48 77 64 101
l30 42 -20 113 c-11 62 -34 178 -50 258 -17 80 -31 148 -31 153 0 17 -20 5
-41 -24z"/>
<path d="M5510 9143 c-50 -16 -159 -108 -199 -167 -88 -132 -127 -239 -146
-404 l-13 -113 89 -174 89 -175 41 56 c75 102 80 122 84 332 5 246 20 403 51
535 14 60 24 110 23 111 -2 2 -11 1 -19 -1z"/>
<path d="M9836 9123 c3 -15 15 -59 25 -98 25 -93 49 -364 49 -551 0 -115 4
-161 16 -190 15 -37 104 -178 109 -172 1 2 42 81 90 177 l88 174 -12 106 c-22
181 -85 338 -178 441 -51 57 -135 123 -171 134 -21 7 -22 5 -16 -21z"/>
<path d="M9464 8924 c-144 -188 -777 -1009 -1368 -1774 -121 -157 -362 -469
-536 -695 -174 -225 -477 -618 -673 -873 -196 -254 -357 -465 -357 -467 0 -2
201 -5 448 -7 l447 -3 58 -27 c79 -37 130 -79 168 -138 l32 -49 27 42 c37 58
102 114 169 146 l56 26 645 5 c642 5 645 5 701 28 82 33 168 91 217 147 53 60
109 172 122 245 7 36 9 681 8 1829 l-3 1773 -161 -208z m-977 -1736 c-3 -7 -5
-2 -5 12 0 14 2 19 5 13 2 -7 2 -19 0 -25z m-50 -79 c-2 -22 -8 -44 -13 -47
-5 -4 -15 -19 -21 -34 -12 -26 -11 -28 10 -29 17 -1 15 -3 -9 -10 -31 -9 -65
-61 -50 -76 3 -3 6 -1 6 5 0 7 18 24 40 38 22 15 40 33 40 40 0 8 7 14 15 14
26 0 16 -30 -15 -48 -41 -23 -47 -43 -11 -32 16 4 39 13 52 19 23 12 23 11 4
-4 -11 -8 -36 -20 -57 -25 -34 -10 -68 -41 -68 -63 0 -5 16 0 35 12 54 32 41
6 -20 -39 -59 -44 -68 -60 -32 -60 26 0 57 19 111 69 21 20 36 30 32 24 -14
-25 12 -12 54 27 49 45 50 46 50 25 0 -14 -14 -26 -200 -160 -52 -38 -134
-105 -183 -148 -87 -79 -87 -80 -71 -104 17 -27 15 -54 -10 -118 -23 -62 -20
-114 10 -160 42 -62 93 -113 166 -161 38 -25 98 -79 135 -120 l66 -74 28 49
c51 89 165 165 287 192 44 10 56 18 69 43 26 50 87 128 131 168 68 61 169 81
284 57 106 -23 167 -129 155 -267 -11 -113 -78 -194 -230 -273 -49 -25 -82
-50 -91 -67 -36 -70 -182 -181 -285 -218 -84 -30 -185 -81 -230 -115 -78 -60
-95 -69 -138 -69 -37 0 -48 6 -106 63 -35 34 -96 91 -134 127 -84 78 -126 149
-205 348 -34 84 -70 158 -88 178 -22 25 -30 45 -30 72 0 20 -11 61 -25 91
l-25 53 -45 -41 c-24 -22 -49 -41 -55 -41 -6 0 -24 -13 -40 -30 -21 -21 -30
-25 -32 -15 -3 17 -41 -19 -130 -121 -87 -101 -98 -115 -98 -127 0 -7 -4 -6
-10 3 -7 11 1 24 30 53 41 39 48 53 29 59 -36 12 103 167 271 301 19 16 35 39
36 50 2 50 19 89 55 128 21 23 41 50 44 61 8 23 61 51 86 45 12 -3 20 2 24 14
3 10 19 29 35 42 16 14 27 27 24 30 -3 2 23 33 57 67 34 35 56 59 49 55 -7 -4
-4 4 5 19 10 14 22 26 27 26 5 0 7 4 4 9 -8 12 34 65 89 110 27 23 53 41 56
41 6 0 16 21 38 83 15 39 23 33 18 -14z m39 -7 c-15 -15 -15 -15 -4 10 7 15
15 23 17 17 2 -6 -4 -18 -13 -27z m69 11 c-3 -16 -17 -45 -31 -65 l-24 -38 47
5 48 4 -49 -10 c-67 -14 -74 -2 -37 57 17 26 31 54 31 61 0 7 5 13 11 13 7 0
9 -10 4 -27z m64 -30 c-40 -47 -42 -49 -34 -33 10 19 47 60 53 60 3 0 -5 -12
-19 -27z m61 4 c0 -2 -12 -14 -27 -28 l-28 -24 24 28 c23 25 31 32 31 24z
m-144 -115 c-17 -16 -18 -16 -5 5 7 12 15 20 18 17 3 -2 -3 -12 -13 -22z
m-846 -873 c-6 -18 -10 -50 -10 -69 0 -19 -5 -42 -10 -50 -6 -10 -8 3 -4 40 6
57 23 124 30 118 2 -3 -1 -20 -6 -39z m-35 -189 c-23 -44 -30 -31 -8 15 10 20
19 32 21 26 2 -5 -4 -24 -13 -41z m-205 36 c0 -3 -15 -14 -32 -26 l-33 -22 28
26 c27 25 37 31 37 22z m-44 -153 c-8 -15 -15 -22 -16 -15 0 14 22 53 28 47 2
-2 -3 -16 -12 -32z"/>
<path d="M8308 6943 c-23 -28 -30 -43 -19 -43 12 0 46 48 39 55 -3 3 -12 -3
-20 -12z"/>
<path d="M8273 6878 c-20 -32 -63 -122 -63 -134 0 -7 -10 -25 -23 -41 -13 -15
-38 -55 -56 -88 l-33 -60 64 66 c34 36 72 80 82 99 l19 33 -22 -6 c-27 -7 -17
11 14 23 14 6 24 20 28 42 3 18 9 43 13 56 7 24 -9 31 -23 10z"/>
<path d="M8176 6785 c-9 -14 -21 -23 -26 -20 -6 3 -7 0 -4 -8 5 -15 -11 -31
-31 -32 -5 0 -9 -10 -7 -23 2 -12 0 -21 -5 -20 -12 4 -53 -21 -53 -33 0 -5 10
-1 22 11 28 26 35 18 14 -15 -10 -15 -15 -33 -12 -40 2 -7 -2 -16 -9 -19 -9
-3 -12 -12 -8 -22 6 -15 7 -15 20 2 7 10 11 24 9 31 -3 7 0 13 6 13 6 0 8 3 5
6 -4 4 7 22 23 41 34 39 95 153 81 153 -5 0 -16 -11 -25 -25z"/>
<path d="M8304 6743 c-12 -12 -13 -18 -4 -21 7 -3 22 5 33 17 18 18 19 21 5
21 -9 0 -24 -8 -34 -17z"/>
<path d="M7830 6350 c0 -19 -43 -69 -54 -63 -6 3 -5 0 1 -7 11 -12 18 -9 43
15 31 30 37 49 20 60 -5 3 -10 1 -10 -5z"/>
<path d="M7735 6259 c-4 -6 -17 -14 -29 -19 -20 -8 -20 -9 5 -9 24 -1 49 15
49 31 0 12 -18 10 -25 -3z"/>
<path d="M7579 6083 c-13 -16 -12 -17 4 -4 9 7 17 15 17 17 0 8 -8 3 -21 -13z"/>
<path d="M4934 8674 c4 -32 16 -129 28 -214 l21 -155 71 -76 c69 -73 142 -174
184 -253 18 -34 22 -37 28 -20 4 10 16 41 26 68 l19 48 -51 105 c-100 211
-286 527 -322 549 -7 5 -9 -10 -4 -52z"/>
<path d="M10381 8671 c-90 -129 -321 -559 -321 -598 0 -9 10 -42 21 -74 l21
-58 55 87 c55 87 113 161 185 238 l40 41 24 174 c13 96 23 192 22 213 l-3 39
-44 -62z"/>
<path d="M4918 8289 c43 -88 70 -221 78 -374 5 -100 10 -125 27 -150 12 -16
40 -58 63 -93 l41 -62 12 42 c7 24 30 94 52 156 23 65 38 123 35 136 -16 66
-230 335 -314 395 l-27 19 33 -69z"/>
<path d="M10384 8273 c-96 -97 -192 -220 -230 -295 l-25 -49 44 -122 c25 -67
48 -137 51 -155 8 -33 20 -42 29 -19 2 6 29 46 59 88 l55 76 6 134 c7 158 24
242 71 350 18 43 32 79 30 79 -2 0 -43 -39 -90 -87z"/>
<path d="M5466 8260 c-8 -19 -28 -53 -43 -76 -15 -23 -41 -61 -57 -85 -36 -53
-96 -208 -96 -247 0 -63 70 -284 133 -420 l24 -52 41 93 c54 119 95 234 117
325 25 103 17 184 -27 297 -20 50 -45 115 -56 145 l-20 55 -16 -35z"/>
<path d="M9862 8234 c-13 -33 -34 -86 -47 -119 -43 -109 -58 -174 -51 -231 12
-104 62 -261 129 -406 l44 -93 20 40 c61 118 133 349 133 424 0 66 -56 202
-123 297 -30 43 -61 94 -69 113 l-13 33 -23 -58z"/>
<path d="M7548 8133 l-3 -138 -127 -3 -128 -3 0 -129 0 -130 130 0 130 0 0
-325 0 -325 135 0 135 0 0 325 0 325 130 0 130 0 0 130 0 130 -130 0 -130 0 0
140 0 140 -135 0 -134 0 -3 -137z"/>
<path d="M4870 7868 c0 -2 9 -28 21 -58 36 -93 61 -245 60 -360 -1 -157 16
-294 48 -385 31 -88 74 -165 94 -165 6 0 27 28 45 61 l32 61 -35 87 c-56 140
-63 224 -33 403 l11 68 -38 62 c-54 89 -173 227 -197 228 -5 0 -8 -1 -8 -2z"/>
<path d="M10432 7825 c-49 -45 -133 -158 -165 -221 -15 -29 -15 -39 -2 -109
28 -147 14 -285 -44 -405 l-30 -64 35 -63 c20 -35 40 -63 44 -63 19 0 62 71
89 147 37 99 51 200 51 357 0 138 20 276 56 385 14 40 23 76 20 78 -3 3 -27
-16 -54 -42z"/>
<path d="M5207 7773 c-80 -238 -104 -371 -88 -498 9 -71 56 -215 71 -215 13 0
139 157 178 221 l39 64 -39 85 c-48 103 -102 263 -120 354 l-14 68 -27 -79z"/>
<path d="M10125 7815 c-38 -161 -68 -251 -139 -408 -24 -55 -25 -60 -10 -89
32 -62 83 -135 139 -198 32 -36 59 -66 60 -68 1 -1 16 34 33 79 62 156 54 317
-27 565 -43 130 -50 145 -56 119z"/>
<path d="M9765 7620 c17 -288 54 -475 114 -568 74 -114 126 -231 162 -362 l20
-75 102 0 c63 0 111 -5 125 -13 28 -16 28 -9 3 114 -26 128 -86 244 -184 363
-95 115 -160 211 -209 312 -44 88 -98 214 -98 226 0 4 -9 31 -20 58 l-21 50 6
-105z"/>
<path d="M5576 7650 c-45 -133 -137 -325 -203 -425 -22 -33 -68 -90 -101 -127
-122 -134 -180 -262 -216 -474 l-5 -32 47 15 c29 8 78 13 126 11 l80 -2 21 79
c36 131 81 232 150 340 21 33 50 98 65 150 30 100 63 363 58 460 l-3 60 -19
-55z"/>
<path d="M5545 7110 c-3 -16 -25 -57 -47 -92 -53 -81 -99 -182 -131 -283 -43
-140 -43 -131 6 -153 24 -11 59 -33 79 -51 l36 -31 20 48 c70 161 98 367 72
520 -13 77 -24 91 -35 42z"/>
<path d="M9789 7100 c-7 -27 -13 -95 -12 -170 0 -136 25 -257 78 -376 l25 -57
33 30 c17 17 52 41 75 53 42 21 44 23 37 57 -20 107 -96 292 -157 380 -16 23
-37 62 -47 85 l-18 43 -14 -45z"/>
<path d="M4941 7059 c-19 -69 -25 -302 -11 -416 15 -126 19 -133 58 -102 26
21 31 34 42 104 6 44 23 113 36 153 l24 74 -26 21 c-23 18 -58 83 -101 186 -9
24 -10 23 -22 -20z"/>
<path d="M10395 7072 c-13 -53 -76 -172 -100 -188 l-23 -15 19 -44 c11 -24 27
-91 37 -150 16 -95 21 -109 48 -130 16 -13 32 -24 35 -25 14 0 33 179 33 305
0 123 -17 260 -34 270 -4 3 -11 -7 -15 -23z"/>
<path d="M9967 4655 c-55 -42 -54 -67 1 -30 20 13 38 23 40 20 2 -2 9 -40 16
-85 11 -80 28 -109 34 -59 4 30 -24 169 -36 181 -5 5 -30 -8 -55 -27z"/>
<path d="M5350 4670 c0 -5 7 -10 16 -10 11 0 -2 -20 -36 -61 -35 -40 -50 -63
-43 -70 7 -7 31 13 71 59 46 52 58 72 50 80 -15 15 -58 16 -58 2z"/>
<path d="M5468 4579 c-10 -5 -18 -21 -18 -34 0 -17 -6 -25 -18 -25 -46 0 -56
-57 -16 -89 54 -42 122 -18 107 37 -4 16 -1 22 10 22 18 0 31 32 22 58 -3 11
-17 24 -31 30 -30 14 -34 14 -56 1z m65 -32 c8 -21 -8 -39 -29 -35 -11 2 -20
13 -22 26 -3 18 1 22 21 22 14 0 27 -6 30 -13z m-47 -72 c19 -28 3 -49 -30
-41 -32 8 -43 30 -26 52 17 19 39 15 56 -11z"/>
<path d="M9833 4569 c-31 -20 -31 -21 -19 -57 13 -37 22 -41 62 -28 56 18 70
-56 13 -76 -16 -5 -29 -14 -29 -19 0 -18 39 -8 70 17 38 32 37 68 -1 96 -21
16 -30 17 -54 8 -22 -8 -30 -8 -37 2 -13 21 -10 27 22 43 30 16 41 36 18 34
-7 0 -27 -10 -45 -20z"/>
<path d="M9682 4494 c-26 -18 -31 -71 -7 -80 10 -4 12 -15 8 -35 -3 -17 0 -35
7 -44 16 -20 70 -19 98 1 31 21 27 75 -5 89 -16 7 -21 15 -17 28 7 22 -21 57
-45 57 -9 0 -27 -7 -39 -16z m53 -39 c0 -22 -31 -33 -47 -17 -17 17 -1 44 24
40 15 -2 23 -10 23 -23z m29 -51 c35 -13 7 -69 -31 -62 -22 4 -29 34 -13 53
14 17 21 18 44 9z"/>
<path d="M5613 4457 c-35 -17 -63 -35 -63 -40 0 -5 18 -16 40 -25 32 -14 38
-21 34 -38 -7 -29 12 -40 26 -14 6 11 17 20 25 20 17 0 20 17 5 22 -7 2 -5 17
5 42 16 37 14 67 -2 65 -4 0 -36 -14 -70 -32z m44 -27 c-11 -30 -30 -37 -56
-21 -11 7 -5 14 25 30 21 11 40 20 41 21 1 0 -4 -13 -10 -30z"/>
<path d="M5765 4437 c-13 -10 -16 -21 -11 -40 5 -20 2 -27 -14 -32 -21 -7 -27
-39 -12 -63 13 -20 70 -32 98 -22 31 12 39 32 24 59 -9 17 -8 25 5 37 23 24
17 42 -22 63 -28 14 -45 14 -68 -2z m65 -22 c15 -18 5 -35 -20 -35 -22 0 -34
15 -26 35 7 19 30 19 46 0z m-22 -71 c27 -19 28 -30 2 -44 -14 -8 -26 -8 -40
0 -31 17 -25 54 10 59 3 1 16 -6 28 -15z"/>
<path d="M9528 4429 c-24 -13 -23 -32 1 -24 16 5 21 -4 37 -65 10 -42 23 -70
31 -70 18 0 17 13 -8 98 -22 72 -29 80 -61 61z"/>
<path d="M8572 4341 c-11 -6 -10 -25 3 -101 16 -90 16 -95 -3 -119 -24 -33
-73 -40 -100 -13 -17 17 -42 130 -42 192 0 13 -7 20 -20 20 -24 0 -25 -19 -6
-134 11 -66 18 -84 41 -104 52 -44 151 -18 176 46 9 24 -18 222 -30 222 -3 0
-12 -4 -19 -9z"/>
<path d="M6810 4312 c-92 -49 -93 -195 -2 -238 40 -19 104 -29 126 -21 26 10
8 34 -23 29 -37 -5 -96 21 -117 52 -26 40 -14 103 27 139 26 24 38 28 73 25
22 -3 48 -8 57 -12 11 -5 19 -2 23 9 13 36 -105 48 -164 17z"/>
<path d="M7063 4177 c-35 -67 -63 -125 -63 -130 0 -4 8 -7 18 -7 12 0 25 14
37 41 15 33 23 39 39 35 12 -3 35 -6 52 -6 29 0 33 -4 43 -45 9 -34 16 -45 31
-45 11 0 20 3 20 8 0 12 -69 252 -75 262 -19 31 -43 4 -102 -113z m91 27 c4
-19 10 -42 13 -50 4 -11 -5 -14 -37 -14 -23 0 -40 4 -38 8 35 84 44 100 49 96
4 -2 10 -20 13 -40z"/>
<path d="M8166 4293 l-28 -5 6 -71 c19 -206 17 -197 39 -197 18 0 19 5 14 60
l-7 60 34 0 c36 0 56 -17 76 -67 12 -31 50 -48 50 -23 0 19 -42 95 -57 103
-12 7 -11 11 6 24 21 14 29 66 13 89 -20 30 -67 39 -146 27z m109 -47 c22 -34
6 -63 -41 -72 -19 -3 -38 -4 -41 -1 -3 3 -8 26 -10 52 l-6 45 41 0 c33 0 45
-5 57 -24z"/>
<path d="M7326 4239 c-3 -24 -8 -86 -11 -136 -6 -89 -6 -93 14 -93 18 0 21 6
21 38 0 68 8 80 43 73 33 -7 51 -32 62 -84 5 -26 29 -46 42 -34 9 9 -18 105
-33 118 -11 9 -10 14 11 31 30 24 33 66 6 99 -15 19 -30 24 -84 27 l-65 4 -6
-43z m115 1 c12 -7 19 -21 19 -40 0 -34 -23 -50 -69 -50 -30 0 -31 1 -31 50 0
49 1 50 31 50 17 0 39 -5 50 -10z"/>
<path d="M7932 4263 c-17 -35 -84 -255 -78 -260 13 -13 36 9 47 46 l12 41 54
0 c53 0 53 0 69 -40 11 -27 22 -40 35 -40 10 0 19 5 19 10 0 6 -25 66 -56 135
-43 94 -61 125 -75 125 -10 0 -22 -8 -27 -17z m48 -79 c11 -26 20 -50 20 -55
0 -5 -17 -9 -39 -9 l-38 0 15 55 c8 30 17 55 18 55 2 0 12 -21 24 -46z"/>
<path d="M7576 4180 c-6 -77 -4 -97 11 -128 33 -67 135 -76 183 -15 17 22 20
40 20 129 0 97 -1 104 -20 104 -19 0 -20 -7 -20 -98 0 -120 -11 -142 -71 -142
-37 0 -41 3 -55 36 -11 26 -14 62 -12 118 2 67 0 81 -13 84 -13 2 -17 -12 -23
-88z"/>
<path d="M3280 3253 c-19 -3 -40 -9 -47 -15 -7 -5 -21 -7 -32 -3 -24 7 -73 -4
-65 -16 3 -5 -2 -6 -11 -3 -8 4 -26 -1 -40 -10 -14 -9 -30 -14 -35 -11 -6 3
-10 2 -10 -3 0 -5 -12 -14 -27 -21 -26 -10 -27 -10 -9 4 11 8 15 15 8 15 -6 0
-19 -11 -28 -25 -9 -14 -20 -22 -25 -20 -27 17 -29 -62 -29 -970 0 -746 -3
-935 -12 -929 -9 5 -9 3 1 -9 7 -9 18 -14 24 -10 5 3 7 1 3 -5 -3 -6 -2 -13 4
-17 5 -3 10 -1 10 5 0 6 5 8 10 5 6 -4 8 -11 5 -16 -4 -5 -1 -10 4 -10 6 -1
16 -3 21 -4 6 -1 15 -3 21 -4 5 0 7 -6 3 -13 -5 -8 -2 -9 9 -5 9 3 19 2 22 -4
4 -5 11 -7 16 -4 5 4 9 1 9 -4 0 -6 3 -10 8 -9 4 1 30 -6 58 -15 58 -20 63
-20 264 -20 130 -1 155 2 239 27 51 16 119 40 150 54 65 29 221 130 221 143 0
5 7 9 15 9 12 0 15 -18 15 -105 l0 -105 275 0 275 0 0 1045 0 1045 -275 0
-275 0 0 -75 c0 -78 -8 -89 -39 -61 -28 26 -180 97 -259 123 -132 42 -338 62
-472 46z m380 -497 c117 -21 222 -70 328 -154 l42 -34 0 -363 0 -363 -56 -57
c-68 -69 -140 -116 -241 -157 -75 -31 -83 -32 -223 -32 -128 0 -151 2 -193 22
-27 12 -51 21 -55 20 -10 -3 -132 89 -126 95 3 2 -6 14 -20 25 -15 11 -26 25
-26 31 0 6 -5 11 -11 11 -5 0 -7 5 -4 10 3 6 3 10 -2 10 -12 0 -57 69 -49 77
3 3 6 0 6 -7 0 -7 2 -11 5 -8 3 3 0 17 -6 32 -9 20 -15 23 -21 14 -6 -9 -8 -2
-5 20 2 20 -1 32 -8 32 -6 0 -12 6 -12 13 0 6 -3 37 -6 67 -4 37 -3 45 2 25 6
-20 9 7 9 85 0 72 -3 104 -8 85 l-8 -30 -1 30 c0 17 6 42 13 58 8 15 11 27 7
27 -4 0 -8 7 -8 15 0 8 4 15 9 15 4 0 8 13 8 29 0 17 4 33 10 36 6 3 7 -1 4
-12 -5 -17 -5 -17 6 0 6 9 8 22 5 27 -3 6 -1 10 6 10 7 0 10 3 6 6 -9 9 41 97
73 125 16 15 28 28 26 30 -1 2 9 15 23 29 13 14 20 18 16 10 -8 -15 42 25 57
45 4 6 8 7 8 2 0 -4 19 2 41 14 89 45 244 59 379 35z"/>
<path d="M9765 3246 c-513 -102 -828 -544 -802 -1126 19 -424 214 -755 542
-920 335 -168 736 -134 1036 87 33 24 61 43 64 43 3 0 5 -45 5 -100 l0 -100
285 0 285 0 -2 1048 -3 1047 -282 3 -283 2 0 -75 c0 -41 -4 -75 -9 -75 -5 0
-34 16 -66 35 -74 44 -180 88 -280 115 -103 29 -381 37 -490 16z m449 -491
c128 -22 225 -67 334 -153 l42 -33 0 -366 0 -365 -59 -58 c-273 -267 -714
-246 -885 44 -68 114 -81 171 -81 351 1 148 3 166 28 238 66 189 194 304 378
341 98 19 139 19 243 1z"/>
<path d="M4832 2188 l3 -1043 293 -3 292 -2 0 815 0 815 190 0 c226 0 291 -12
366 -68 34 -26 58 -55 79 -97 27 -54 30 -70 30 -150 -1 -196 -96 -289 -324
-317 -48 -5 -87 -11 -88 -12 -1 -1 -9 -67 -17 -146 -9 -80 -18 -167 -22 -195
l-6 -50 137 -165 c76 -91 158 -187 184 -213 98 -103 247 -190 388 -227 88 -23
245 -27 336 -9 47 10 57 15 57 33 0 22 -27 312 -36 381 l-5 41 -68 -4 c-84 -5
-154 15 -227 65 -60 41 -180 171 -168 182 5 4 30 16 56 25 72 27 187 106 242
167 133 147 186 391 137 625 -67 314 -301 516 -670 578 -78 13 -186 16 -628
16 l-533 0 2 -1042z"/>
<path d="M6977 3222 l-118 -3 3 -752 3 -752 29 -80 c56 -156 112 -243 216
-338 148 -134 399 -207 710 -207 410 0 688 116 838 350 46 71 69 125 101 230
l25 85 4 738 3 737 -291 0 -290 0 0 -627 c0 -511 -3 -641 -15 -697 -26 -122
-101 -221 -212 -277 -62 -32 -74 -34 -163 -34 -88 0 -101 3 -162 33 -87 43
-168 130 -200 216 -23 61 -23 62 -26 722 l-3 661 -167 -1 c-92 -1 -220 -2
-285 -4z"/>
<path d="M11400 2180 l0 -1050 295 0 295 0 0 815 0 815 183 0 c289 0 380 -34
450 -165 18 -34 22 -57 22 -150 0 -94 -3 -116 -22 -151 -50 -95 -151 -149
-297 -160 l-84 -7 -6 -31 c-3 -17 -12 -96 -21 -176 -8 -80 -17 -156 -19 -168
-3 -18 32 -67 154 -213 198 -237 260 -293 399 -364 106 -53 205 -77 326 -77
61 -1 136 4 168 11 48 11 57 16 57 34 0 26 -29 348 -36 392 l-4 30 -87 0 c-74
0 -97 5 -143 26 -70 33 -120 74 -187 152 l-54 61 79 37 c245 113 364 292 379
569 18 343 -157 621 -466 739 -189 72 -292 81 -903 81 l-478 0 0 -1050z"/>
<path d="M13422 2488 l3 -743 28 -88 c89 -287 263 -454 562 -539 67 -19 104
-22 230 -22 179 0 265 19 415 92 52 26 98 48 103 50 4 2 7 -30 7 -72 l0 -76
295 0 295 0 0 1070 0 1070 -295 0 -295 0 -2 -667 -3 -668 -23 -58 c-29 -70
-112 -163 -179 -199 -142 -77 -329 -55 -447 53 -62 57 -91 116 -106 216 -5 39
-10 336 -10 696 l0 627 -290 0 -291 0 3 -742z"/>
<path d="M2785 2175 c0 -467 1 -657 2 -422 2 236 2 618 0 850 -1 232 -2 40 -2
-428z"/>
<path d="M4590 275 l0 -255 45 0 45 0 0 99 0 98 80 6 c133 10 182 50 188 150
4 57 2 66 -24 96 -43 51 -77 61 -214 61 l-120 0 0 -255z m244 164 c34 -27 36
-82 4 -116 -18 -20 -31 -23 -90 -23 l-68 0 0 80 0 80 64 0 c49 0 69 -5 90 -21z"/>
<path d="M5260 275 l0 -255 45 0 45 0 0 111 0 111 70 -4 c95 -5 104 -15 110
-126 l5 -87 43 -3 42 -3 0 81 c0 89 -16 142 -49 160 -20 10 -20 12 14 41 67
59 54 169 -26 209 -32 17 -59 20 -169 20 l-130 0 0 -255z m259 159 c28 -35 26
-69 -4 -99 -21 -22 -33 -25 -95 -25 l-70 0 0 75 0 75 74 0 c69 0 76 -2 95 -26z"/>
<path d="M5950 275 l0 -255 164 0 c175 0 176 0 176 51 0 18 -8 19 -125 19
l-125 0 0 80 0 80 115 0 115 0 0 35 0 35 -115 0 -115 0 0 70 0 70 120 0 120 0
0 35 0 35 -165 0 -165 0 0 -255z"/>
<path d="M6600 275 l0 -255 45 0 45 0 0 110 0 110 110 0 110 0 0 35 0 35 -110
0 -110 0 0 75 0 75 115 0 115 0 0 35 0 35 -160 0 -160 0 0 -255z"/>
<path d="M7230 275 l0 -255 165 0 c156 0 165 1 165 19 0 11 3 26 6 35 5 14 -9
16 -120 16 l-126 0 0 80 0 80 110 0 110 0 0 35 0 35 -110 0 -110 0 0 70 0 70
115 0 115 0 0 35 0 35 -160 0 -160 0 0 -255z"/>
<path d="M7880 275 l0 -255 45 0 46 0 -1 255 -1 255 -45 0 -44 0 0 -255z"/>
<path d="M8270 495 l0 -35 70 0 70 0 0 -220 0 -220 45 0 45 0 0 220 0 220 75
0 75 0 0 35 0 35 -190 0 -190 0 0 -35z"/>
<path d="M8942 328 c3 -182 5 -207 23 -238 52 -89 231 -110 314 -36 45 40 51
72 51 281 l0 195 -45 0 -45 0 0 -196 0 -196 -29 -29 c-51 -51 -147 -33 -170
32 -6 19 -11 106 -11 210 l0 179 -46 0 -46 0 4 -202z"/>
<path d="M9680 275 l0 -255 45 0 45 0 0 111 0 111 64 -4 c86 -5 106 -23 106
-92 0 -28 3 -68 6 -89 6 -36 8 -37 49 -37 l43 0 -5 83 c-6 110 -10 125 -39
152 -25 23 -25 24 -5 35 34 18 54 67 49 122 -10 94 -56 118 -233 118 l-125 0
0 -255z m250 165 c30 -30 27 -83 -6 -109 -21 -16 -41 -21 -90 -21 l-64 0 0 75
0 75 70 0 c57 0 74 -4 90 -20z"/>
<path d="M10411 293 c-41 -131 -76 -246 -79 -255 -4 -15 3 -18 40 -18 l45 0
18 65 17 65 92 0 92 0 20 -63 19 -62 49 -3 c36 -2 47 0 43 10 -2 7 -40 122
-83 255 l-79 243 -60 0 -61 0 -73 -237z m198 -50 c1 -9 -18 -13 -64 -13 -44 0
-65 4 -65 12 0 12 45 167 57 198 5 13 70 -165 72 -197z"/>
</g>
</svg>
